{
    "asset" : {
        "generator" : "Khronos glTF Blender I/O v1.6.16",
        "version" : "2.0"
    },
    "scene" : 0,
    "scenes" : [
        {
            "name" : "Scene",
            "nodes" : [
                0
            ]
        }
    ],
    "nodes" : [
        {
            "mesh" : 0,
            "name" : "Cube.003",
            "scale" : [
                1.1543794870376587,
                0.9710781574249268,
                4.591598987579346
            ],
            "translation" : [
                -0.004407973028719425,
                2.3041765689849854,
                -2.2956717014312744
            ]
        }
    ],
    "materials" : [
        {
            "doubleSided" : true,
            "name" : "White",
            "pbrMetallicRoughness" : {
                "baseColorTexture" : {
                    "index" : 0
                },
                "metallicFactor" : 0,
                "roughnessFactor" : 0.5
            }
        },
        {
            "doubleSided" : true,
            "name" : "Blue",
            "pbrMetallicRoughness" : {
                "baseColorTexture" : {
                    "index" : 1
                },
                "metallicFactor" : 0,
                "roughnessFactor" : 0.4000000059604645
            }
        },
        {
            "doubleSided" : true,
            "name" : "Screen",
            "pbrMetallicRoughness" : {
                "baseColorTexture" : {
                    "index" : 2
                },
                "metallicFactor" : 0,
                "roughnessFactor" : 0.5
            }
        }
    ],
    "meshes" : [
        {
            "name" : "Cube.017",
            "primitives" : [
                {
                    "attributes" : {
                        "POSITION" : 0,
                        "NORMAL" : 1,
                        "TEXCOORD_0" : 2
                    },
                    "indices" : 3,
                    "material" : 0
                },
                {
                    "attributes" : {
                        "POSITION" : 4,
                        "NORMAL" : 5,
                        "TEXCOORD_0" : 6
                    },
                    "indices" : 7,
                    "material" : 1
                },
                {
                    "attributes" : {
                        "POSITION" : 8,
                        "NORMAL" : 9,
                        "TEXCOORD_0" : 10
                    },
                    "indices" : 11,
                    "material" : 2
                }
            ]
        }
    ],
    "textures" : [
        {
            "sampler" : 0,
            "source" : 0
        },
        {
            "sampler" : 0,
            "source" : 0
        },
        {
            "sampler" : 0,
            "source" : 0
        }
    ],
    "images" : [
        {
            "bufferView" : 4,
            "mimeType" : "image/jpeg",
            "name" : "InternTextureComputer"
        }
    ],
    "accessors" : [
        {
            "bufferView" : 0,
            "componentType" : 5126,
            "count" : 1020,
            "max" : [
                4.777835369110107,
                6.115584850311279,
                1.008316159248352
            ],
            "min" : [
                -4.831069469451904,
                -4.442911148071289,
                -0.991683840751648
            ],
            "type" : "VEC3"
        },
        {
            "bufferView" : 1,
            "componentType" : 5126,
            "count" : 1020,
            "type" : "VEC3"
        },
        {
            "bufferView" : 2,
            "componentType" : 5126,
            "count" : 1020,
            "type" : "VEC2"
        },
        {
            "bufferView" : 3,
            "componentType" : 5123,
            "count" : 1770,
            "type" : "SCALAR"
        },
        {
            "bufferView" : 5,
            "componentType" : 5126,
            "count" : 180,
            "max" : [
                4.684724807739258,
                5.766117572784424,
                0.9442967176437378
            ],
            "min" : [
                -4.737958908081055,
                -4.349800109863281,
                -0.9562439918518066
            ],
            "type" : "VEC3"
        },
        {
            "bufferView" : 6,
            "componentType" : 5126,
            "count" : 180,
            "type" : "VEC3"
        },
        {
            "bufferView" : 7,
            "componentType" : 5126,
            "count" : 180,
            "type" : "VEC2"
        },
        {
            "bufferView" : 8,
            "componentType" : 5123,
            "count" : 330,
            "type" : "SCALAR"
        },
        {
            "bufferView" : 9,
            "componentType" : 5126,
            "count" : 388,
            "max" : [
                3.277575969696045,
                5.659770488739014,
                0.7474437952041626
            ],
            "min" : [
                -3.2699389457702637,
                -1.1254310607910156,
                0.6927732229232788
            ],
            "type" : "VEC3"
        },
        {
            "bufferView" : 10,
            "componentType" : 5126,
            "count" : 388,
            "type" : "VEC3"
        },
        {
            "bufferView" : 11,
            "componentType" : 5126,
            "count" : 388,
            "type" : "VEC2"
        },
        {
            "bufferView" : 12,
            "componentType" : 5123,
            "count" : 756,
            "type" : "SCALAR"
        }
    ],
    "bufferViews" : [
        {
            "buffer" : 0,
            "byteLength" : 12240,
            "byteOffset" : 0
        },
        {
            "buffer" : 0,
            "byteLength" : 12240,
            "byteOffset" : 12240
        },
        {
            "buffer" : 0,
            "byteLength" : 8160,
            "byteOffset" : 24480
        },
        {
            "buffer" : 0,
            "byteLength" : 3540,
            "byteOffset" : 32640
        },
        {
            "buffer" : 0,
            "byteLength" : 370005,
            "byteOffset" : 36180
        },
        {
            "buffer" : 0,
            "byteLength" : 2160,
            "byteOffset" : 406188
        },
        {
            "buffer" : 0,
            "byteLength" : 2160,
            "byteOffset" : 408348
        },
        {
            "buffer" : 0,
            "byteLength" : 1440,
            "byteOffset" : 410508
        },
        {
            "buffer" : 0,
            "byteLength" : 660,
            "byteOffset" : 411948
        },
        {
            "buffer" : 0,
            "byteLength" : 4656,
            "byteOffset" : 412608
        },
        {
            "buffer" : 0,
            "byteLength" : 4656,
            "byteOffset" : 417264
        },
        {
            "buffer" : 0,
            "byteLength" : 3104,
            "byteOffset" : 421920
        },
        {
            "buffer" : 0,
            "byteLength" : 1512,
            "byteOffset" : 425024
        }
    ],
    "samplers" : [
        {
            "magFilter" : 9729,
            "minFilter" : 9987
        }
    ],
    "buffers" : [
        {
            "byteLength" : 426536,
            "uri" : "data:application/octet-stream;base64,"
        }
    ]
}
