{
    "asset" : {
        "generator" : "Khronos glTF Blender I/O v1.6.16",
        "version" : "2.0"
    },
    "scene" : 0,
    "scenes" : [
        {
            "name" : "Scene",
            "nodes" : [
                0
            ]
        }
    ],
    "nodes" : [
        {
            "mesh" : 0,
            "name" : "Cube.001",
            "scale" : [
                0.845869243144989,
                0.8586525321006775,
                0.149266317486763
            ],
            "translation" : [
                -20.255016326904297,
                41.36735916137695,
                0
            ]
        }
    ],
    "materials" : [
        {
            "doubleSided" : true,
            "name" : "Material.001",
            "pbrMetallicRoughness" : {
                "baseColorTexture" : {
                    "index" : 0
                },
                "metallicFactor" : 0,
                "roughnessFactor" : 0.5
            }
        }
    ],
    "meshes" : [
        {
            "name" : "Cube.002",
            "primitives" : [
                {
                    "attributes" : {
                        "POSITION" : 0,
                        "NORMAL" : 1,
                        "TEXCOORD_0" : 2
                    },
                    "indices" : 3,
                    "material" : 0
                }
            ]
        }
    ],
    "textures" : [
        {
            "sampler" : 0,
            "source" : 0
        }
    ],
    "images" : [
        {
            "bufferView" : 4,
            "mimeType" : "image/jpeg",
            "name" : "IneternTextureSlate"
        }
    ],
    "accessors" : [
        {
            "bufferView" : 0,
            "componentType" : 5126,
            "count" : 1212,
            "max" : [
                5.327460289001465,
                4.058164119720459,
                3.01005220413208
            ],
            "min" : [
                -4.63059139251709,
                -5.44374942779541,
                -3.0105397701263428
            ],
            "type" : "VEC3"
        },
        {
            "bufferView" : 1,
            "componentType" : 5126,
            "count" : 1212,
            "type" : "VEC3"
        },
        {
            "bufferView" : 2,
            "componentType" : 5126,
            "count" : 1212,
            "type" : "VEC2"
        },
        {
            "bufferView" : 3,
            "componentType" : 5123,
            "count" : 1734,
            "type" : "SCALAR"
        }
    ],
    "bufferViews" : [
        {
            "buffer" : 0,
            "byteLength" : 14544,
            "byteOffset" : 0
        },
        {
            "buffer" : 0,
            "byteLength" : 14544,
            "byteOffset" : 14544
        },
        {
            "buffer" : 0,
            "byteLength" : 9696,
            "byteOffset" : 29088
        },
        {
            "buffer" : 0,
            "byteLength" : 3468,
            "byteOffset" : 38784
        },
        {
            "buffer" : 0,
            "byteLength" : 249222,
            "byteOffset" : 42252
        }
    ],
    "samplers" : [
        {
            "magFilter" : 9729,
            "minFilter" : 9987
        }
    ],
    "buffers" : [
        {
            "byteLength" : 291476,
            "uri" : "data:application/octet-stream;base64,"
        }
    ]
}
