<svg xmlns="http://www.w3.org/2000/svg" viewBox="0 0 472.9 568.18"><defs><style>.cls-1{fill:#fff;}</style></defs><g id="Layer_7" data-name="Layer 7"><path class="cls-1" d="M263.57,519.8q0-103.72,0-207.47c0-23.63,16.4-41.36,39.89-42.69,10.3-.59,20.65-.69,31-.47,5.17.11,6.74-1.7,6.43-6.66-.37-5.81-.08-11.66-.08-17.49,0-24.94,22-41.8,41.52-41.7q156.72.8,313.45.1c15,0,31.81,10.41,37.33,26a53.74,53.74,0,0,1,3.23,17.49q.26,207.21.13,414.43c0,25.43-18.34,43.67-43.89,43.71-9.33,0-18.67.15-28-.06-4.19-.1-5.59,1.52-5.43,5.59.24,6,.08,12,0,18-.09,18.95-11.1,34.49-29.15,40.47A45.87,45.87,0,0,1,616,771.39q-155,.2-310,.09c-24.83,0-42.49-21.08-42.46-42.21Q263.67,624.54,263.57,519.8Zm438.19-65.22h0q0-103,0-206c0-9.67-1.57-11.32-11.29-11.32H390.07c-14.48,0-14.95.43-14.95,14.82V658.53c0,10.74,1.47,12.23,12,12.23H690.05c10.58,0,11.71-1.14,11.71-11.73ZM298,519.92V725.38c0,10.31,1.25,11.59,11.47,11.6q113.73,0,227.45,0,39.24,0,78.48-.06c7.59,0,9.38-1.91,9.46-9.51.05-4.66,0-9.33.1-14,.17-8.39.2-8.4-8-8.4q-116.22,0-232.45,0a42.45,42.45,0,0,1-10.39-1c-21.2-5.39-33.31-21.22-33.32-43.3q0-126.74,0-253.45c0-32.82-.06-65.65.07-98.48,0-4-1.1-5.65-5.35-5.5-8,.29-16,.08-24,.08-12.86,0-13.5.59-13.5,13.58Q297.94,418.45,298,519.92Z" transform="translate(-263.54 -203.32)"/><path class="cls-1" d="M538.25,491.43q-58.22,0-116.42,0c-9.21,0-16.05-4.83-18.16-12.67a17.05,17.05,0,0,1,13-21.2,28.82,28.82,0,0,1,5.95-.52q115.67,0,231.34,0c10.37,0,16.84,4.26,19.37,12.47,3.35,10.86-5.15,21.86-17.15,21.9-25.82.09-51.63,0-77.45,0Z" transform="translate(-263.54 -203.32)"/><path class="cls-1" d="M538.07,414.44q-58.5,0-117,0c-7.95,0-14.39-4.25-17-10.94-2.7-7-1.27-13.65,4.35-18.11,3.64-2.88,8.85-4.47,13.56-5.1,6.39-.85,13-.23,19.47-.24H651c2.17,0,4.34-.07,6.5.11,9.31.81,16.91,8.72,16.81,17.41-.11,9-8,16.74-17.73,16.81-20.66.15-41.33.07-62,.08Z" transform="translate(-263.54 -203.32)"/><path class="cls-1" d="M538.49,337.52q-58.69,0-117.41,0c-8.87,0-15.25-4.73-17.51-12.75-2.67-9.46,4.08-19.83,13.84-21a93.36,93.36,0,0,1,11.46-.67q110.42,0,220.84,0a74.56,74.56,0,0,1,9.45.56c8.47,1.11,15.38,9.08,15.12,17.21-.27,8.58-8.11,16.49-16.87,16.63-11.16.18-22.32.06-33.48.06Z" transform="translate(-263.54 -203.32)"/><path class="cls-1" d="M538.53,568.38H423.13c-5.87,0-11.28-1.22-15.41-5.71-4.66-5.08-6.32-11-3.65-17.52,2.77-6.79,8.21-10.25,15.33-11.21a33.53,33.53,0,0,1,4.49-.14h229.8c9.91,0,16.65,4.17,19.45,11.88,4,11.07-4.45,22.43-17.21,22.65-13.32.22-26.65.06-40,.06Z" transform="translate(-263.54 -203.32)"/></g></svg>