<svg xmlns="http://www.w3.org/2000/svg" viewBox="0 0 598.58 652.6"><defs><style>.cls-1{fill:#fff;}</style></defs><g id="Layer_2" data-name="Layer 2"><path class="cls-1" d="M200.83,486.5c0-52.11.07-104.23-.1-156.35,0-5.42,1.76-8.37,6.59-11,45.43-24.68,90.68-49.66,136-74.5,47.23-25.87,94.69-51.32,141.59-77.77,10.8-6.08,18.62-6.78,29.93-.34,49.69,28.27,100.12,55.25,150.28,82.68,23.37,12.77,46.78,25.47,70.09,38.35,1.84,1,4.33,3.3,4.2,4.79-.18,2-2.23,4.49-4.16,5.57-14.14,7.94-28.45,15.57-42.69,23.32-4.1,2.22-8.46,4.1-12.17,6.86-4.17,3.11-7.53,1.73-11.32-.35q-39.12-21.51-78.3-42.89c-28-15.32-56-30.71-84.06-45.83a9.25,9.25,0,0,0-7.46-.24c-15.79,8.19-31.38,16.75-47,25.24q-30.42,16.54-60.78,33.18-33.23,18.18-66.41,36.4Q298.85,347.93,272.51,362c-3.73,2-4.23,5.17-4.22,8.91.07,20.77,0,41.54,0,62.31q0,123.72.07,247.45c0,5.57-1.24,6.4-6.19,3.7-18.22-9.94-36.33-20.09-54.62-29.89-5.17-2.77-6.9-6.44-6.88-12.24C200.9,590.35,200.82,538.43,200.83,486.5Z" transform="translate(-200.71 -162.01)"/><path class="cls-1" d="M799.29,335.52h0V304.15c0-1.48-.08-3-.13-4.45-.23-6.06-1.59-6.36-6.91-3.41q-33.88,18.84-67.81,37.59c-31.91,17.55-63.92,34.92-95.82,52.5Q567.67,420,506.89,453.88c-4.9,2.74-8.64,2.5-13.45-.41q-63.37-38.24-127-76c-4.87-2.91-6.77-1.91-6.78,3.78-.06,21.16-.14,42.33.26,63.48a11.23,11.23,0,0,0,4.54,7.91c13,8.35,26.34,16.21,39.62,24.14,29.42,17.55,59.08,34.73,88.17,52.81,7.2,4.47,12.42,5,19.67.78,23.52-13.55,47.37-26.55,71.16-39.63,17.32-9.52,34.8-18.75,52.11-28.27,14.91-8.2,29.6-16.79,44.55-24.9,15.43-8.37,31.14-16.23,46.59-24.59,10.3-5.58,20.28-11.77,30.54-17.44q18.43-10.18,37.11-19.92c2.69-1.41,4.47-3,5.33-5.28Z" transform="translate(-200.71 -162.01)"/><path class="cls-1" d="M799.29,475.53h0c0-2,0-3.94,0-5.91V445.7c0-1.8-.08-3.6-.14-5.4-.24-6.36-1.65-6.77-7.2-3.71L690.14,492.78q-91.53,50.54-183,101.24c-5.24,2.93-8.71,2.84-13.68-.16-42.22-25.53-84.6-50.78-126.95-76.11-5.18-3.1-6.91-2.13-6.92,4,0,20.57.15,41.14,0,61.71,0,4.89,1.67,8,5.9,10.44,17.07,10,34,20.17,51,30.32,26.2,15.68,52.35,31.46,78.65,47,2.78,1.64,7.11,3.6,9.45,2.56,10.66-4.77,21-10.39,31.22-16,9.39-5.16,18.44-10.92,27.83-16.08,15.25-8.37,30.75-16.28,46-24.71,23-12.78,45.86-26,68.92-38.75,15.38-8.5,31.1-16.4,46.54-24.79,23.13-12.57,46.13-25.39,69.27-38,2.62-1.42,4.24-3.12,5-5.48Z" transform="translate(-200.71 -162.01)"/><path class="cls-1" d="M799.29,616.19h-.24c0-12.33.07-24.65,0-37,0-4-1.83-5.24-5.66-3.11C774.2,586.75,755,597.3,735.8,607.92Q666.94,646,598.07,684.13c-30.16,16.66-60.45,33.1-90.51,50-5.27,2.95-9.2,3-14.43-.14q-62.82-38-126-75.47c-1.7-1-3.89-1.21-5.85-1.78-.53,2-1.52,4-1.53,5.95-.12,20,.08,40-.18,60-.08,5.54,1.71,9,6.53,11.9Q432,773.67,497.68,813.16c3.87,2.31,7.26,1.63,11-.48q25.19-14.25,50.54-28.21c17.26-9.56,34.58-19,51.86-28.53,16.08-8.88,32.09-17.89,48.21-26.69,13.21-7.21,26.58-14.13,39.79-21.34,14.43-7.85,28.73-15.93,43.13-23.83q26.47-14.52,53-28.89a8,8,0,0,0,4-4.24Z" transform="translate(-200.71 -162.01)"/></g></svg>