<svg xmlns="http://www.w3.org/2000/svg" viewBox="0 0 573.86 574.73"><defs><style>.cls-1{fill:#fff;}</style></defs><g id="Layer_6" data-name="Layer 6"><path class="cls-1" d="M829.79,628.64c-3.94,69.36-36.3,128-105.07,163.76-32.85,17.06-68.41,22.6-104.85,16.07-75-13.44-123.32-58.23-147.34-129.8-8.7-25.91-10.77-52.73-7-79.85,9.87-70.94,47.12-121.89,112.42-151.45,27.33-12.37,56.51-16.22,86.42-12.85,60.46,6.81,105.89,37.42,137.56,88.6C820.55,553.21,829.11,586.54,829.79,628.64ZM645,472.58c-9.28,1.47-21.88,2.25-33.77,5.55A146.25,146.25,0,0,0,504.57,604.6c-3.66,37.46,4.29,72.27,25.67,103.92,33.5,49.57,96.91,74.08,154.35,57.26,58.2-17,92.48-57.33,104.57-115.95A141,141,0,0,0,778.59,560C752.7,505,709,476.18,645,472.58Z" transform="translate(-255.93 -236.4)"/><path class="cls-1" d="M256,502.73q0-94.49,0-189c0-12.79,2.46-24.8,10-35.42,11-15.33,26.22-21.94,44.68-22.17,6.66-.09,13.31-.5,20-.49,10.57,0,19.39,9.88,18.59,20.56-.87,11.52-10.84,20-21.67,18.6a73.63,73.63,0,0,0-10-.61c-15.3.08-25.17,10-25.18,25.43q0,154.49,0,309,0,28,0,56c0,16.68,9.59,26.27,26.35,26.28,40.83,0,81.66.12,122.49-.11,5.51,0,8.36,1.84,10.64,6.75,4.07,8.74,8.82,17.16,13.44,25.64,2.35,4.32,2.05,5.27-2.82,5.27-53,0-106,.22-159-.19-22.8-.17-44.55-21.69-46.88-45.07-.44-4.47-.66-9-.67-13.47Q255.92,596.23,256,502.73Z" transform="translate(-255.93 -236.4)"/><path class="cls-1" d="M732.14,415.29c-5.79-2-10.72-3.8-15.71-5.42a142.59,142.59,0,0,0-14.33-4.27c-4.2-.9-5.63-2.87-5.6-7.19.18-26,.1-52,.09-77.92,0-16.55-9.73-26.29-26.34-26.28a105.67,105.67,0,0,0-11.93.73c-9.78,1.12-19.92-7.41-20.66-17.52-.85-11.76,7.06-22,17.64-21.66,13.58.48,27.49.28,40.6,3.26,21.32,4.85,36.48,26.24,36.51,48.13q.09,51,0,101.9C732.42,410.68,732.28,412.32,732.14,415.29Z" transform="translate(-255.93 -236.4)"/><path class="cls-1" d="M512.42,275.49c0,6,0,12,0,18-.06,11-7.65,19.28-17.49,20.08-12,1-20.68-9.12-21-18.89-.38-13-.35-26,0-39,.29-10.9,10.7-20.06,20.26-19.24,9,.77,17.83,8.76,18.12,18,.22,7,0,14,0,21Z" transform="translate(-255.93 -236.4)"/><path class="cls-1" d="M612.37,275c0,6.16,0,12.33,0,18.49-.08,11-7.74,19.29-17.53,20.1-13,1.07-20.75-10-21-18.84q-.5-19.48,0-39c.25-9.91,9.14-21.22,23.22-19.06,7.46,1.14,15,10,15.25,18.3.17,6.66,0,13.33,0,20Z" transform="translate(-255.93 -236.4)"/><path class="cls-1" d="M412.46,275.56c0,6,0,12,0,18-.06,10.8-7.51,19.17-17,20a19.47,19.47,0,0,1-21.32-18.42c-.54-13.13-.47-26.31,0-39.45.38-11.32,11.05-19.89,19.78-19.21,9.4.73,18.22,8.6,18.49,18.13.2,7,0,14,0,21Z" transform="translate(-255.93 -236.4)"/><path class="cls-1" d="M637.27,673.86l21.64-34.09c17.58-27.7,35.08-55.44,52.82-83,2.45-3.82,5.54-7.74,9.29-10.11,7.75-4.92,16.47-3.17,22.68,3.4,6.44,6.83,7.41,16.65,2.2,24.9q-22,34.85-44.12,69.59T657.53,714c-7.7,12.1-20.63,13.79-30.65,3.55q-31.82-32.49-63.23-65.36c-10-10.48-7.09-26.09,5.57-32.28,7.54-3.7,15-2.27,21.77,4.61,14.21,14.53,28.28,29.18,42.36,43.83A54.74,54.74,0,0,1,637.27,673.86Z" transform="translate(-255.93 -236.4)"/></g></svg>