<?xml version="1.0" encoding="utf-8"?>
<!-- Generator: Adobe Illustrator 24.3.0, SVG Export Plug-In . SVG Version: 6.00 Build 0)  -->
<svg version="1.1" xmlns="http://www.w3.org/2000/svg" xmlns:xlink="http://www.w3.org/1999/xlink" x="0px" y="0px"
	 viewBox="0 0 1000 1000" style="enable-background:new 0 0 1000 1000;" xml:space="preserve">
<style type="text/css">
	.st0{display:none;}
	.st1{display:inline;}
	.st2{display:inline;fill:#FFFFFF;}
	.st3{fill:#FFFFFF;}
</style>
<g id="Layer_1">
</g>
<g id="Layer_3" class="st0">
	<rect class="st1" width="1000" height="1000"/>
</g>
<g id="Layer_2" class="st0">
	<path class="st2" d="M200.83,486.5c0-52.12,0.07-104.23-0.1-156.35c-0.02-5.42,1.76-8.38,6.6-11
		c45.43-24.68,90.68-49.66,136.02-74.5c47.23-25.87,94.69-51.32,141.59-77.77c10.8-6.09,18.62-6.78,29.93-0.34
		c49.69,28.27,100.11,55.25,150.28,82.68c23.37,12.78,46.78,25.47,70.09,38.35c1.83,1.01,4.33,3.3,4.19,4.79
		c-0.18,2-2.23,4.49-4.15,5.57c-14.14,7.94-28.45,15.57-42.7,23.32c-4.1,2.23-8.46,4.11-12.17,6.86c-4.17,3.11-7.53,1.73-11.32-0.35
		c-26.08-14.33-52.2-28.6-78.3-42.89c-28-15.32-55.96-30.7-84.06-45.83c-2-1.08-5.5-1.26-7.46-0.24
		c-15.78,8.19-31.38,16.75-47.01,25.25c-20.28,11.03-40.54,22.09-60.79,33.18c-22.14,12.12-44.24,24.31-66.4,36.4
		c-17.48,9.54-35.01,19-52.56,28.41c-3.73,2-4.24,5.17-4.22,8.91c0.07,20.77,0.03,41.54,0.04,62.31
		c0.02,82.49,0.05,164.97,0.08,247.46c0,5.56-1.25,6.39-6.2,3.69c-18.22-9.94-36.32-20.08-54.61-29.89
		c-5.18-2.77-6.91-6.44-6.88-12.24C200.9,590.35,200.82,538.43,200.83,486.5z"/>
	<path class="st2" d="M799.29,335.52C799.29,335.52,799.29,335.52,799.29,335.52c0-0.22,0-0.44,0-0.67v-30.7
		c-0.03-1.49-0.08-2.97-0.13-4.46c-0.23-6.06-1.59-6.36-6.91-3.4c-22.59,12.55-45.16,25.13-67.81,37.58
		c-31.91,17.55-63.92,34.92-95.82,52.51c-40.63,22.4-81.23,44.88-121.74,67.5c-4.9,2.74-8.63,2.5-13.45-0.41
		c-42.24-25.5-84.65-50.73-127.02-76.02c-4.87-2.91-6.76-1.91-6.78,3.79c-0.06,21.16-0.14,42.32,0.26,63.47
		c0.05,2.72,2.22,6.43,4.54,7.91c13.01,8.35,26.34,16.21,39.62,24.13c29.42,17.56,59.08,34.73,88.18,52.82
		c7.2,4.47,12.41,4.97,19.67,0.78c23.52-13.56,47.36-26.55,71.15-39.64c17.32-9.52,34.8-18.75,52.12-28.27
		c14.9-8.19,29.59-16.78,44.54-24.89c15.43-8.37,31.15-16.23,46.59-24.59c10.31-5.58,20.28-11.77,30.54-17.44
		c12.29-6.79,24.67-13.41,37.11-19.92c2.69-1.41,4.46-2.99,5.33-5.28V335.52z"/>
	<path class="st2" d="M799.29,475.53c-0.01,0-0.01,0-0.02,0c0-1.97,0.01-3.94,0.02-5.91V445.7c-0.03-1.8-0.08-3.6-0.14-5.4
		c-0.23-6.36-1.64-6.78-7.2-3.71c-33.94,18.73-67.87,37.46-101.81,56.19c-61.02,33.69-122.09,67.29-182.96,101.24
		c-5.24,2.92-8.71,2.83-13.68-0.17c-42.22-25.53-84.61-50.78-126.95-76.1c-5.18-3.1-6.91-2.13-6.92,4.05
		c-0.02,20.57,0.14,41.14-0.02,61.7c-0.04,4.89,1.67,7.97,5.9,10.44c17.07,9.97,34.01,20.17,50.98,30.33
		c26.21,15.68,52.35,31.45,78.65,46.99c2.78,1.64,7.12,3.61,9.45,2.56c10.67-4.77,20.97-10.39,31.22-16.02
		c9.39-5.16,18.44-10.92,27.83-16.08c15.25-8.37,30.75-16.28,45.95-24.71c23.05-12.78,45.86-25.99,68.93-38.75
		c15.38-8.5,31.09-16.4,46.53-24.79c23.14-12.57,46.14-25.39,69.27-37.96c2.62-1.42,4.24-3.12,4.96-5.48V475.53z"/>
	<path class="st2" d="M799.29,616.19c-0.08,0-0.16,0-0.24,0c0-12.33,0.06-24.66-0.04-36.98c-0.03-4.03-1.83-5.24-5.66-3.11
		c-19.16,10.66-38.38,21.21-57.56,31.82c-45.91,25.4-91.8,50.85-137.72,76.21c-30.16,16.66-60.45,33.1-90.51,49.95
		c-5.27,2.95-9.2,3.02-14.43-0.14c-41.88-25.34-83.93-50.4-125.98-75.47c-1.7-1.01-3.89-1.21-5.85-1.78
		c-0.53,1.98-1.51,3.97-1.53,5.95c-0.12,19.98,0.08,39.97-0.19,59.95c-0.07,5.54,1.72,9.05,6.53,11.91
		c43.92,26.11,87.74,52.39,131.56,78.66c3.87,2.32,7.26,1.64,10.99-0.47c16.79-9.5,33.66-18.87,50.54-28.22
		c17.26-9.55,34.58-19,51.86-28.53c16.08-8.88,32.09-17.88,48.21-26.69c13.21-7.21,26.58-14.13,39.79-21.34
		c14.42-7.86,28.72-15.94,43.12-23.84c17.65-9.68,35.34-19.29,53.04-28.88c2.08-1.13,3.38-2.45,4.05-4.25V616.19z"/>
</g>
<g id="Layer_4" class="st0">
	<path class="st2" d="M459,740.9c-65.65,0-131.31-0.5-196.96,0.21c-34.06,0.37-61-26.77-60.89-60.89
		c0.27-85.65,0.06-171.3,0.12-256.95c0.01-15.15-0.23-30.35,0.74-45.45c1.75-27.21,22.24-50.36,48.84-55.37
		c7.76-1.46,15.9-1.12,23.87-1.22c4.04-0.05,5.75-1.01,6.23-5.51c2-18.65,3.92-37.35,7.01-55.85c3.91-23.35,24.66-44.17,47.72-47.28
		c10.56-1.42,21.6-0.23,32.33,0.78c19.5,1.83,38.94,4.43,58.4,6.67c19.47,2.24,38.94,4.44,58.41,6.63
		c25.08,2.82,50.17,5.59,75.25,8.44c22.11,2.52,44.21,5.17,66.32,7.69c21.95,2.49,43.91,4.79,65.85,7.34
		c21.43,2.5,43.05,4.12,64.22,8.09c30.11,5.65,50.97,34.39,48.13,64.86c-2.46,26.29-5.81,52.5-8.73,78.74
		c-2.45,21.94-4.79,43.9-7.31,65.84c-1.74,15.16-3.8,30.29-5.55,45.45c-1.56,13.53-2.84,27.1-4.33,40.64
		c-1.85,16.84-3.62,33.69-5.76,50.49c-1.19,9.35-2.1,18.92-4.83,27.87c-6.07,19.91-19.77,32.8-39.8,38.54
		c-4.28,1.22-5.95,2.93-5.68,7.48c2.01,34.26-27.75,59.08-53.74,61.81c-3.79,0.4-7.6,0.92-11.4,0.92
		C591.31,740.91,525.16,740.9,459,740.9z M237.39,584.62c2.31-1.6,3.68-2.51,5.01-3.47c28.83-20.91,57.59-41.92,86.51-62.72
		c24.25-17.45,56.78-17.49,79.86,1.58c27.06,22.37,53.07,46.02,79.31,69.37c14.4,12.81,29.14,14.51,45.68,4.82
		c49.4-28.92,98.84-57.75,148.35-86.48c3.48-2.02,4.85-4.16,4.83-8.22c-0.15-37.65-0.08-75.31-0.1-112.96
		c-0.01-16.75-12.93-29.63-29.8-29.63c-131.79-0.01-263.58,0-395.36-0.02c-7.73,0-13.69,3.13-18.45,9.19
		c-4.82,6.15-5.89,13.17-5.88,20.67c0.05,64.14,0.03,128.29,0.03,192.43C237.39,580.65,237.39,582.13,237.39,584.62z M686.85,546.68
		c-3.96,2.18-7,3.78-9.97,5.5c-43.37,25.08-86.59,50.43-130.17,75.16c-20.48,11.62-41.89,11.28-63.29,1.71
		c-11.98-5.36-20.9-14.7-30.53-23.11c-21.95-19.17-43.67-38.62-65.73-57.67c-10.92-9.43-26.78-9.65-38.4-1.14
		c-36,26.36-71.99,52.74-107.87,79.27c-1.72,1.27-3.32,4.01-3.35,6.08c-0.24,17.49-0.34,35,0.11,52.49c0.1,3.88,1.9,8.16,4.12,11.44
		c4.93,7.29,12.58,8.98,21.05,8.97c130.49-0.08,260.99-0.06,391.48-0.07c3,0,6.03,0.05,8.98-0.34
		c11.62-1.54,23.97-10.71,23.76-25.51c-0.59-42.16-0.21-84.33-0.21-126.49C686.85,551.21,686.85,549.45,686.85,546.68z
		 M722.68,634.95c7.6-4.13,11.07-9.73,12.05-16.84c1.11-8.06,1.73-16.18,2.68-24.26c4.09-34.8,8.29-69.59,12.33-104.39
		c3.14-27.05,6.07-54.12,9.17-81.17c3.23-28.22,6.53-56.43,9.84-84.64c1.8-15.38-6.56-28.7-19.73-30.69
		c-10.67-1.61-21.4-2.82-32.12-4.04c-18.82-2.14-37.66-4.05-56.48-6.24c-24.41-2.83-48.78-5.92-73.19-8.75
		c-18.81-2.18-37.67-4.02-56.48-6.23c-29.68-3.49-59.32-7.26-88.99-10.73c-29.71-3.47-59.45-6.65-89.16-10.05
		c-17.11-1.96-29.46,8.14-31.19,25.25c-1.52,15.03-3.46,30.01-5.4,44.99c-0.39,2.98,0.53,4.04,3.34,3.97c1.67-0.04,3.33,0,5,0
		c109.65,0,219.3-0.1,328.95,0.18c8.83,0.02,18.06,1.44,26.41,4.26c25.82,8.73,42.96,33.83,42.98,61.39
		c0.03,80.32,0.01,160.64,0.01,240.96C722.68,629.89,722.68,631.85,722.68,634.95z"/>
	<path class="st2" d="M442.86,459.65c0.32-35.91,29.49-64.39,66.22-63.52c35.91,0.85,62.84,31.33,62.17,65.12
		c-0.67,33.94-27.6,63.17-64.24,63.11C469.32,524.31,442.42,493.34,442.86,459.65z M507.27,431.77
		c-16.19-0.06-28.61,12.12-28.66,28.1c-0.04,16,12.43,28.98,27.97,29.1c15.76,0.12,29.24-12.75,29.09-28.68
		C535.51,442.35,521.43,431.53,507.27,431.77z"/>
</g>
<g id="Layer_5">
	<path class="st3" d="M267.47,153.87c155.66,0,311.31,0,466.97,0c0.77,0.34,1.51,0.84,2.31,0.99c35.78,6.62,58.94,34.36,58.95,70.81
		c0.02,169.59,0.03,339.18-0.08,508.77c0,6.33-0.52,12.83-2.02,18.95c-8.06,32.9-35.31,53.74-69.94,53.75
		c-142.47,0.03-284.93,0.01-427.4,0.01c-7.23,0-14.46,0.08-21.69-0.06c-33.67-0.63-63.45-26.62-66.97-60.21
		c-1.9-18.14-0.98-36.57-1.28-54.87c-0.02-1.39,0.36-2.79,0.63-4.7c2.67,0,4.97,0,7.27,0c17.86,0,35.72-0.07,53.58,0.02
		c9.98,0.05,18.41-3.34,24.59-11.19c7.59-9.64,9.29-20.49,4.17-31.76c-5.09-11.21-14.07-17.62-26.48-17.85
		c-18.7-0.36-37.42-0.13-56.13-0.19c-2.45-0.01-4.9-0.25-7.3-0.38c0-37.75,0-74.73,0-112.51c2.86,0,5.35,0.01,7.84,0
		c19.13-0.09,38.29,0.34,57.4-0.43c17.75-0.71,30.67-18.93,26.66-36.23c-3.59-15.5-15.12-24.26-32.8-24.46
		c-17.43-0.19-34.87-0.03-52.31-0.07c-2.24,0-4.48-0.26-6.78-0.4c0-38.29,0-75.89,0-113.75c1.59-0.14,2.83-0.34,4.06-0.34
		c19.14-0.02,38.28,0.19,57.41-0.09c18.41-0.26,31.55-13.72,31.37-31.53c-0.18-17.09-13.37-29.54-31.59-29.65
		c-14.46-0.09-28.92-0.02-43.38-0.02c-5.88,0-11.76,0-17.32,0c0-21.21-1.17-41.67,0.32-61.94c1.59-21.66,13.36-38.55,31.81-49.64
		C247.88,159.8,258.06,157.46,267.47,153.87z M247.46,235.65c8.51,0,16.55-0.08,24.58,0.01c43.66,0.5,77.38,43.59,67.5,86.2
		c-8.08,34.84-37.41,58.18-73.26,58.27c-6.28,0.02-12.56,0-18.77,0c0,10.66,0,20.36,0,30.68c8.21,0,16.03-0.17,23.85,0.03
		c36.88,0.92,68.23,32.68,68.81,69.61c0.64,40.89-31.03,73.3-71.89,73.56c-6.93,0.04-13.86,0.01-20.88,0.01c0,10.82,0,20.75,0,31.77
		c8.28,0,16.31-0.29,24.32,0.05c42.75,1.79,74.82,44.1,65.14,85.79c-7.86,33.87-34.76,55.79-69.39,56.46
		c-7.14,0.14-14.28,0.02-22.01,0.02c0.34,5.68,0.05,10.44,1.01,14.94c2.43,11.37,13.14,22.43,31.43,22.39
		c148.21-0.28,296.42-0.16,444.63-0.16c1.49,0,2.98,0.02,4.46-0.05c15.85-0.76,27.77-13.13,27.82-29.1
		c0.53-170.23,1.03-340.46,1.5-510.69c0.05-18.63-12.07-30.66-30.72-30.67c-35.51-0.03-71.02-0.01-106.53-0.01
		c-113.76,0-227.52-0.01-341.29,0.01c-15.81,0-27.66,9.45-30.21,24.61C246.76,224.34,247.46,229.54,247.46,235.65z"/>
	<path class="st3" d="M599.16,455.16c14.14,12.17,29.27,23.34,42.2,36.66c32.55,33.54,50.84,74.13,56.45,120.68
		c1.75,14.49-0.13,27.49-8.86,39.24c-6.71,9.02-15.71,14.06-26.93,14.95c-3.38,0.27-6.79,0.35-10.19,0.35
		c-83.53,0.02-167.09-0.95-250.6,0.48c-34.66,0.59-52.24-25.21-48.19-55.16c7-51.7,28.72-95.71,67.18-130.99
		c9.97-9.14,21.23-16.87,32.36-25.6c-19.87-23.63-27.87-51.15-21.41-82.02c4.84-23.11,17.16-41.89,35.97-56.25
		c37.4-28.56,91.09-25.19,124.86,7.53C625.21,357.21,633.82,413.96,599.16,455.16z M658.26,625.15c-1.68-10.69-2.44-21.1-5.02-31.04
		c-17.11-65.92-59.86-105.15-125.68-119.95c-1.19-0.27-2.55-0.46-3.69-0.16c-9.41,2.51-19.09,4.35-28.11,7.89
		c-51.74,20.34-84.2,57.95-97.67,111.83c-2.53,10.11-3.12,20.71-4.65,31.43C482.29,625.15,569.76,625.15,658.26,625.15z
		 M580.13,393.76c-0.31-2.25-0.66-5.19-1.14-8.12c-4.35-26.47-25.93-45.22-53.02-46.1c-25.72-0.83-48.37,16.77-54.74,42.55
		c-5.98,24.2,6.72,49.77,30.39,61.09c6.68,3.2,13.33,6.49,20.17,9.33c2.05,0.85,4.99,1.08,6.97,0.26
		c7.62-3.15,15.25-6.41,22.45-10.41C569.84,431.99,578.83,415.55,580.13,393.76z"/>
</g>
<g id="Layer_6" class="st0">
	<path class="st2" d="M829.79,628.64c-3.94,69.36-36.3,128.04-105.07,163.76c-32.84,17.06-68.41,22.6-104.84,16.07
		c-75.02-13.44-123.32-58.23-147.35-129.8c-8.7-25.92-10.77-52.73-6.99-79.85c9.88-70.93,47.13-121.89,112.42-151.45
		c27.33-12.37,56.51-16.22,86.43-12.85c60.46,6.81,105.89,37.42,137.56,88.6C820.55,553.21,829.11,586.54,829.79,628.64z
		 M644.96,472.58c-9.28,1.47-21.87,2.25-33.77,5.56c-58.34,16.2-100.75,66.44-106.62,126.47c-3.66,37.47,4.29,72.27,25.67,103.92
		c33.49,49.57,96.9,74.08,154.35,57.26c58.2-17.04,92.47-57.33,104.57-115.95c6.32-30.61,2.86-61.2-10.57-89.79
		C752.7,504.97,708.96,476.18,644.96,472.58z"/>
	<path class="st2" d="M255.96,502.73c0-62.99,0.03-125.99-0.02-188.98c-0.01-12.8,2.45-24.8,10.04-35.42
		c10.96-15.34,26.21-21.94,44.67-22.18c6.66-0.09,13.32-0.5,19.98-0.49c10.56,0.01,19.39,9.88,18.58,20.56
		c-0.87,11.53-10.84,20.02-21.67,18.61c-3.29-0.43-6.63-0.64-9.95-0.62c-15.29,0.08-25.17,10.06-25.17,25.43
		c-0.02,102.99-0.01,205.98-0.01,308.97c0,18.66-0.01,37.33,0,55.99c0.01,16.68,9.59,26.27,26.35,26.28
		c40.83,0.03,81.66,0.12,122.49-0.11c5.51-0.03,8.36,1.84,10.65,6.75c4.07,8.74,8.82,17.17,13.43,25.64
		c2.36,4.32,2.05,5.27-2.81,5.27c-52.99,0.01-105.99,0.22-158.98-0.19c-22.81-0.18-44.55-21.69-46.88-45.08
		c-0.44-4.47-0.66-8.97-0.67-13.46C255.94,627.39,255.96,565.06,255.96,502.73z"/>
	<path class="st2" d="M732.14,415.29c-5.79-2-10.72-3.79-15.71-5.42c-4.74-1.54-9.47-3.23-14.32-4.27c-4.2-0.9-5.63-2.87-5.6-7.19
		c0.18-25.97,0.1-51.95,0.08-77.92c-0.01-16.55-9.73-26.29-26.33-26.28c-3.98,0-7.98,0.28-11.93,0.73
		c-9.78,1.12-19.92-7.41-20.66-17.52c-0.86-11.76,7.05-22.03,17.64-21.66c13.58,0.48,27.49,0.27,40.6,3.26
		c21.31,4.85,36.47,26.24,36.51,48.13c0.05,33.97,0.02,67.93,0.01,101.9C732.42,410.68,732.28,412.32,732.14,415.29z"/>
	<path class="st2" d="M512.42,275.49c0,5.99,0.03,11.99-0.01,17.98c-0.06,10.98-7.65,19.27-17.49,20.07
		c-12.01,0.97-20.68-9.12-20.97-18.88c-0.37-12.98-0.35-25.98,0.01-38.96c0.3-10.9,10.7-20.06,20.27-19.24
		c9,0.77,17.82,8.76,18.11,18.05c0.22,6.99,0.04,13.99,0.04,20.98C512.4,275.49,512.41,275.49,512.42,275.49z"/>
	<path class="st2" d="M612.37,274.96c0,6.16,0.04,12.33-0.01,18.49c-0.08,10.96-7.73,19.29-17.53,20.1
		c-12.96,1.07-20.75-10.01-20.97-18.84c-0.33-12.98-0.34-25.99-0.01-38.97c0.25-9.91,9.14-21.22,23.22-19.06
		c7.46,1.14,15.04,10.01,15.25,18.3c0.17,6.66,0.03,13.33,0.03,19.99C612.35,274.96,612.36,274.96,612.37,274.96z"/>
	<path class="st2" d="M412.46,275.56c0,5.99,0.03,11.99-0.01,17.98c-0.07,10.8-7.51,19.17-16.98,19.99
		c-12.46,1.08-20.93-8.75-21.32-18.43c-0.54-13.13-0.46-26.31-0.03-39.45c0.38-11.31,11.05-19.88,19.79-19.21
		c9.39,0.73,18.21,8.6,18.49,18.13c0.2,6.99,0.04,13.99,0.04,20.98C412.44,275.56,412.45,275.56,412.46,275.56z"/>
	<path class="st2" d="M637.27,673.86c7.94-12.51,14.79-23.3,21.64-34.1c17.58-27.7,35.08-55.44,52.82-83.03
		c2.45-3.82,5.54-7.74,9.29-10.11c7.75-4.91,16.48-3.17,22.68,3.41c6.45,6.83,7.41,16.65,2.2,24.89
		c-14.66,23.23-29.39,46.41-44.13,69.6c-14.73,23.18-29.51,46.34-44.25,69.51c-7.7,12.11-20.63,13.79-30.65,3.56
		c-21.21-21.66-42.31-43.42-63.23-65.36c-10-10.48-7.09-26.09,5.57-32.29c7.54-3.69,15.03-2.27,21.77,4.62
		c14.21,14.52,28.28,29.18,42.36,43.83C634.61,669.7,635.49,671.36,637.27,673.86z"/>
</g>
<g id="Layer_7" class="st0">
	<path class="st2" d="M263.57,519.8c0-69.16-0.01-138.31,0-207.47c0-23.64,16.4-41.36,39.89-42.7c10.3-0.58,20.65-0.68,30.96-0.47
		c5.17,0.11,6.74-1.7,6.43-6.66c-0.37-5.81-0.08-11.66-0.08-17.49c-0.01-24.94,21.99-41.8,41.52-41.7
		c104.48,0.53,208.97,0.39,313.45,0.09c15.02-0.04,31.81,10.42,37.33,26.01c1.96,5.53,3.22,11.64,3.22,17.48
		c0.18,138.14,0.14,276.29,0.13,414.43c0,25.43-18.34,43.67-43.89,43.7c-9.33,0.01-18.67,0.15-27.99-0.06
		c-4.19-0.09-5.59,1.52-5.43,5.59c0.24,5.99,0.08,12,0.05,17.99c-0.09,18.95-11.09,34.49-29.15,40.47
		c-4.47,1.48-9.36,2.34-14.06,2.35c-103.32,0.13-206.63,0.12-309.95,0.09c-24.83-0.01-42.49-21.07-42.47-42.21
		C263.63,659.45,263.57,589.62,263.57,519.8z M701.76,454.58c0.01,0,0.01,0,0.02,0c0-68.65-0.01-137.3,0.01-205.95
		c0-9.67-1.57-11.32-11.29-11.32c-100.14,0-200.29,0-300.43-0.01c-14.48,0-14.94,0.44-14.95,14.82
		c-0.01,135.47-0.01,270.94,0,406.41c0,10.74,1.47,12.22,11.99,12.22c100.98,0,201.96,0,302.94,0c10.58,0,11.71-1.14,11.71-11.73
		C701.76,590.88,701.76,522.73,701.76,454.58z M297.95,519.92c0,68.48,0,136.97,0,205.45c0,10.31,1.24,11.6,11.46,11.6
		c75.82,0.03,151.63,0.04,227.45,0.04c26.16,0,52.32,0,78.48-0.06c7.58-0.02,9.38-1.91,9.46-9.51c0.05-4.66,0.01-9.33,0.1-14
		c0.17-8.39,0.2-8.4-8-8.4c-77.48,0-154.97,0.01-232.45-0.04c-3.47,0-7.06-0.13-10.39-0.97c-21.2-5.39-33.32-21.23-33.32-43.31
		c-0.01-84.48,0-168.96,0-253.44c0-32.83-0.05-65.65,0.07-98.48c0.02-4.04-1.1-5.65-5.35-5.5c-7.99,0.28-15.99,0.08-23.99,0.08
		c-12.86,0-13.5,0.58-13.51,13.58C297.95,384.62,297.96,452.27,297.95,519.92z"/>
	<path class="st2" d="M538.25,491.43c-38.81,0-77.61,0.01-116.42-0.01c-9.21-0.01-16.05-4.83-18.16-12.67
		c-2.56-9.51,3.31-19.18,12.98-21.2c1.94-0.4,3.97-0.52,5.95-0.52c77.11-0.02,154.23-0.03,231.34,0c10.37,0,16.84,4.26,19.38,12.47
		c3.35,10.86-5.15,21.86-17.16,21.9c-25.82,0.09-51.63,0.03-77.45,0.03C565.23,491.43,551.74,491.43,538.25,491.43z"/>
	<path class="st2" d="M538.07,414.44c-38.99-0.01-77.98,0.01-116.97-0.02c-7.95-0.01-14.4-4.25-16.96-10.94
		c-2.7-7.04-1.27-13.65,4.35-18.11c3.63-2.88,8.85-4.48,13.56-5.11c6.39-0.85,12.97-0.23,19.47-0.23c69.82,0,139.63,0,209.45,0
		c2.17,0,4.34-0.07,6.49,0.11c9.31,0.8,16.91,8.72,16.81,17.4c-0.11,9-8.04,16.74-17.73,16.81c-20.66,0.15-41.32,0.07-61.99,0.08
		C575.72,414.45,556.89,414.45,538.07,414.44z"/>
	<path class="st2" d="M538.49,337.52c-39.14,0-78.28,0.01-117.42-0.02c-8.87-0.01-15.24-4.73-17.51-12.75
		c-2.67-9.45,4.08-19.82,13.84-21.02c3.79-0.46,7.63-0.66,11.45-0.66c73.61-0.04,147.23-0.03,220.84,0c3.15,0,6.33,0.16,9.46,0.56
		c8.47,1.11,15.38,9.07,15.12,17.21c-0.27,8.58-8.11,16.49-16.87,16.63c-11.16,0.18-22.32,0.06-33.48,0.06
		C595.45,337.52,566.97,337.52,538.49,337.52z"/>
	<path class="st2" d="M538.53,568.38c-38.47-0.01-76.93-0.01-115.4,0c-5.86,0-11.28-1.22-15.41-5.72
		c-4.66-5.07-6.32-10.97-3.65-17.51c2.77-6.79,8.21-10.25,15.33-11.21c1.48-0.2,2.99-0.14,4.49-0.14c76.6-0.01,153.2-0.01,229.8,0
		c9.91,0,16.65,4.17,19.45,11.88c4.03,11.07-4.45,22.43-17.22,22.65c-13.32,0.22-26.64,0.06-39.96,0.06
		C590.15,568.39,564.34,568.39,538.53,568.38z"/>
</g>
</svg>
