<svg viewBox="0 0 81 63" fill="none" xmlns="http://www.w3.org/2000/svg">
<path d="M40.55 62.3908C30.3042 62.3908 20.0321 62.3908 9.7863 62.3908C4.76848 62.3908 1.01168 58.3378 1.01168 52.9243C1.01168 38.7528 0.985405 24.5813 1.01168 10.4099C1.01168 6.81031 2.50914 4.06104 5.39899 2.21875C6.68628 1.3968 8.13121 1.02834 9.65494 1.02834C16.1965 1.02834 22.7643 1.05669 29.3059 1.05669C43.4399 1.05669 57.5738 1.02834 71.7341 1C73.3629 1 74.8866 1.42514 76.2528 2.3888C78.8799 4.2311 80.2723 6.86699 80.2985 10.2398C80.3511 17.1838 80.2985 24.1279 80.2985 31.0719C80.2985 38.356 80.2985 45.6402 80.3248 52.9243C80.3248 58.2528 76.568 62.3342 71.6027 62.3342C61.2256 62.3625 50.9009 62.3625 40.55 62.3908C40.55 62.3625 40.55 62.3625 40.55 62.3908ZM40.4449 5.25144C35.2432 5.25144 30.0415 5.25144 24.8398 5.25144C22.1338 5.25144 19.4016 5.27979 16.6957 5.30813C14.2787 5.30813 11.8355 5.30813 9.4185 5.33647C7.42188 5.33647 5.71424 6.75362 5.13627 8.79431C5.05746 9.07774 5.08373 9.30449 5.34644 9.50289C5.71424 9.75797 6.08204 10.0414 6.42357 10.3248C10.8109 13.6976 15.1719 17.0705 19.5855 20.4149C24.183 23.8728 28.7805 27.3306 33.4042 30.7318C34.7441 31.7238 36.0576 32.8291 37.6864 33.311C40.4449 34.1329 43.1246 34.1329 45.5941 32.404C48.5365 30.335 51.4263 28.1809 54.3162 25.9985C58.8349 22.5973 63.3273 19.1395 67.8197 15.71C70.4993 13.641 73.179 11.5719 75.8587 9.53123C76.2002 9.27614 76.2265 9.02106 76.1214 8.62426C75.4383 6.52688 73.7307 5.25144 71.5502 5.25144C67.4781 5.25144 63.4061 5.25144 59.334 5.25144C53.0026 5.25144 46.7238 5.25144 40.4449 5.25144ZM40.839 58.1394C40.839 58.1111 40.839 58.1111 40.839 58.0827C47.3543 58.0827 53.8696 58.0827 60.3849 58.0827C64.1417 58.0827 67.8985 58.0827 71.6553 58.0827C73.8095 58.0827 75.3595 56.8923 76.1214 54.7382C76.2527 54.3414 76.2265 54.0864 75.8849 53.8313C74.3612 52.6976 72.8637 51.5071 71.3663 50.3734C68.0561 47.8226 64.7459 45.2717 61.4095 42.7492C57.8628 40.0566 54.2636 37.3924 50.717 34.6998C50.2441 34.3597 49.9552 34.3597 49.5085 34.6998C48.4314 35.465 47.3806 36.3437 46.1984 36.8822C42.6255 38.5544 38.9737 38.4977 35.4271 36.9105C34.1135 36.3437 32.9576 35.38 31.7491 34.5864C31.4339 34.388 31.1974 34.2179 30.8034 34.5014C29.5423 35.4934 28.2288 36.457 26.9415 37.4207C22.3965 40.8785 17.8516 44.3647 13.3067 47.8226C10.6795 49.8349 8.07866 51.8473 5.45153 53.8596C5.13627 54.0864 5.08373 54.3131 5.21509 54.7099C5.89814 56.8073 7.60578 58.1394 9.70748 58.1394C14.2262 58.1394 18.7448 58.1394 23.2635 58.1111C29.0957 58.1394 34.9542 58.1394 40.839 58.1394ZM27.6245 31.6954C20.0847 25.9418 12.5448 20.2165 5.00492 14.4629C5.00492 25.9701 5.00492 37.449 5.00492 48.9846C12.5711 43.2027 20.0847 37.449 27.6245 31.6954ZM53.6594 31.7238C61.1993 37.4774 68.7392 43.2027 76.3053 48.9563C76.3053 37.4207 76.3053 25.9701 76.3053 14.4346C68.7129 20.2165 61.1993 25.9418 53.6594 31.7238Z" fill="#6648E9"/>
<path d="M40.55 62.3908C30.3042 62.3908 20.0321 62.3908 9.7863 62.3908C4.76848 62.3908 1.01168 58.3378 1.01168 52.9243C1.01168 38.7528 0.985405 24.5813 1.01168 10.4099C1.01168 6.81031 2.50914 4.06104 5.39899 2.21875C6.68628 1.3968 8.13121 1.02834 9.65494 1.02834C16.1965 1.02834 22.7643 1.05669 29.3059 1.05669C43.4399 1.05669 57.5738 1.02834 71.7341 1C73.3629 1 74.8866 1.42514 76.2528 2.3888C78.8799 4.2311 80.2723 6.86699 80.2985 10.2398C80.3511 17.1838 80.2985 24.1279 80.2985 31.0719C80.2985 38.356 80.2985 45.6402 80.3248 52.9243C80.3248 58.2528 76.568 62.3342 71.6027 62.3342C61.2256 62.3625 50.9009 62.3625 40.55 62.3908ZM40.55 62.3908C40.55 62.3625 40.55 62.3625 40.55 62.3908ZM40.4449 5.25144C35.2432 5.25144 30.0415 5.25144 24.8398 5.25144C22.1338 5.25144 19.4016 5.27979 16.6957 5.30813C14.2787 5.30813 11.8355 5.30813 9.4185 5.33647C7.42188 5.33647 5.71424 6.75362 5.13627 8.79431C5.05746 9.07774 5.08373 9.30449 5.34644 9.50289C5.71424 9.75797 6.08204 10.0414 6.42357 10.3248C10.8109 13.6976 15.1719 17.0705 19.5855 20.4149C24.183 23.8728 28.7805 27.3306 33.4042 30.7318C34.7441 31.7238 36.0576 32.8291 37.6864 33.311C40.4449 34.1329 43.1246 34.1329 45.5941 32.404C48.5365 30.335 51.4263 28.1809 54.3162 25.9985C58.8349 22.5973 63.3273 19.1395 67.8197 15.71C70.4993 13.641 73.179 11.5719 75.8587 9.53123C76.2002 9.27614 76.2265 9.02106 76.1214 8.62426C75.4383 6.52688 73.7307 5.25144 71.5502 5.25144C67.4781 5.25144 63.4061 5.25144 59.334 5.25144C53.0026 5.25144 46.7238 5.25144 40.4449 5.25144ZM40.839 58.1394C40.839 58.1111 40.839 58.1111 40.839 58.0827C47.3543 58.0827 53.8696 58.0827 60.3849 58.0827C64.1417 58.0827 67.8985 58.0827 71.6553 58.0827C73.8095 58.0827 75.3595 56.8923 76.1214 54.7382C76.2527 54.3414 76.2265 54.0864 75.8849 53.8313C74.3612 52.6976 72.8637 51.5072 71.3663 50.3734C68.0561 47.8226 64.7459 45.2717 61.4095 42.7492C57.8628 40.0566 54.2636 37.3924 50.717 34.6998C50.2441 34.3597 49.9552 34.3597 49.5085 34.6998C48.4314 35.465 47.3806 36.3437 46.1984 36.8822C42.6255 38.5544 38.9737 38.4977 35.4271 36.9105C34.1135 36.3437 32.9576 35.38 31.7491 34.5864C31.4339 34.388 31.1974 34.2179 30.8034 34.5014C29.5423 35.4934 28.2288 36.457 26.9415 37.4207C22.3965 40.8785 17.8516 44.3647 13.3067 47.8226C10.6795 49.8349 8.07866 51.8473 5.45153 53.8596C5.13627 54.0864 5.08373 54.3131 5.21509 54.7099C5.89814 56.8073 7.60578 58.1394 9.70748 58.1394C14.2262 58.1394 18.7448 58.1394 23.2635 58.1111C29.0957 58.1394 34.9542 58.1394 40.839 58.1394ZM27.6245 31.6954C20.0847 25.9418 12.5448 20.2165 5.00492 14.4629C5.00492 25.9701 5.00492 37.449 5.00492 48.9846C12.5711 43.2027 20.0847 37.449 27.6245 31.6954ZM53.6594 31.7238C61.1993 37.4774 68.7392 43.2027 76.3053 48.9563C76.3053 37.4207 76.3053 25.9701 76.3053 14.4346C68.7129 20.2165 61.1993 25.9418 53.6594 31.7238Z" stroke="#6648E9" stroke-width="0.75" stroke-miterlimit="10"/>
</svg>
