<svg xmlns="http://www.w3.org/2000/svg" viewBox="0 0 603.71 529.18"><defs><style>.cls-1{fill:#fff;}</style></defs><g id="Layer_4" data-name="Layer 4"><path class="cls-1" d="M459,740.9c-65.65,0-131.31-.5-197,.21-34.06.36-61-26.77-60.89-60.9.27-85.65.06-171.3.12-257,0-15.15-.23-30.34.74-45.45,1.74-27.21,22.23-50.36,48.84-55.36,7.76-1.46,15.9-1.13,23.87-1.22,4,0,5.75-1,6.23-5.51,2-18.66,3.92-37.36,7-55.85,3.91-23.35,24.67-44.17,47.72-47.28,10.56-1.43,21.6-.23,32.33.77,19.51,1.84,38.94,4.44,58.41,6.68s38.94,4.44,58.41,6.63q37.62,4.23,75.25,8.44c22.11,2.52,44.21,5.18,66.32,7.69,21.94,2.49,43.91,4.78,65.85,7.34,21.43,2.49,43,4.12,64.21,8.09,30.12,5.65,51,34.39,48.13,64.86-2.45,26.29-5.8,52.49-8.73,78.74-2.45,21.94-4.79,43.9-7.31,65.84-1.74,15.16-3.8,30.29-5.55,45.45-1.56,13.53-2.84,27.1-4.33,40.64-1.85,16.84-3.62,33.69-5.76,50.49-1.19,9.35-2.09,18.92-4.82,27.87-6.08,19.91-19.78,32.8-39.81,38.53-4.27,1.23-5.94,2.93-5.68,7.48,2,34.26-27.75,59.08-53.74,61.81a112,112,0,0,1-11.4.92Q558.23,740.94,459,740.9ZM237.39,584.62c2.31-1.6,3.68-2.51,5-3.47,28.83-20.92,57.59-41.93,86.51-62.73,24.25-17.44,56.78-17.49,79.85,1.59,27.07,22.36,53.07,46,79.32,69.36,14.39,12.81,29.13,14.51,45.68,4.82q74.1-43.37,148.35-86.48c3.48-2,4.85-4.16,4.83-8.22-.15-37.65-.08-75.31-.09-113,0-16.75-12.94-29.63-29.8-29.63q-197.68,0-395.37,0c-7.72,0-13.69,3.12-18.44,9.18s-5.89,13.18-5.88,20.67q.07,96.22,0,192.44Zm449.46-37.94c-4,2.18-7,3.78-10,5.5-43.38,25.08-86.59,50.43-130.17,75.16-20.48,11.62-41.89,11.28-63.29,1.71-12-5.36-20.9-14.7-30.53-23.11-21.95-19.17-43.66-38.63-65.72-57.67-10.92-9.43-26.79-9.65-38.41-1.15q-54,39.54-107.86,79.27a8.94,8.94,0,0,0-3.35,6.08c-.24,17.5-.35,35,.11,52.49.1,3.88,1.9,8.16,4.12,11.44,4.93,7.29,12.58,9,21,9q195.74-.14,391.48-.08a67.1,67.1,0,0,0,9-.34c11.63-1.54,24-10.71,23.77-25.51-.59-42.15-.21-84.32-.21-126.49ZM722.68,635c7.6-4.13,11.07-9.73,12.05-16.84,1.1-8.05,1.73-16.17,2.68-24.25,4.09-34.8,8.29-69.59,12.33-104.4,3.14-27,6.07-54.12,9.16-81.17q4.85-42.33,9.84-84.64C770.55,308.27,762.19,295,749,293c-10.67-1.61-21.4-2.82-32.12-4-18.82-2.14-37.66-4.06-56.47-6.24-24.41-2.84-48.79-5.92-73.19-8.75-18.81-2.19-37.67-4-56.48-6.24-29.67-3.48-59.32-7.26-89-10.72s-59.45-6.65-89.16-10.05c-17.12-2-29.46,8.14-31.2,25.25-1.52,15-3.46,30-5.4,45-.38,3,.53,4,3.34,4,1.66-.05,3.33,0,5,0q164.48,0,328.94.19a84.45,84.45,0,0,1,26.41,4.25c25.82,8.73,43,33.84,43,61.39q0,120.48,0,241Z" transform="translate(-201.15 -211.93)"/><path class="cls-1" d="M442.86,459.65c.33-35.92,29.5-64.39,66.23-63.52,35.9.84,62.84,31.33,62.17,65.12S543.65,524.42,507,524.36C469.32,524.31,442.42,493.34,442.86,459.65Zm64.41-27.88c-16.19-.07-28.61,12.12-28.65,28.1s12.43,29,28,29.1c15.76.13,29.24-12.75,29.09-28.67C535.51,442.35,521.43,431.53,507.27,431.77Z" transform="translate(-201.15 -211.93)"/></g></svg>