<svg xmlns="http://www.w3.org/2000/svg" viewBox="0 0 612.81 612.82"><defs><style>.cls-1{fill:#fff;}</style></defs><g id="Layer_7" data-name="Layer 7"><path class="cls-1" d="M605.49,793.81H216.89c-5.63,0-11-.78-15.57-4.46-5.56-4.51-7.23-10.67-7.23-17.48q0-90,0-180.09,0-100,0-199.93,0-94.42,0-188.84c0-8.83,2.75-16.33,11.46-20A27.55,27.55,0,0,1,216,181.09q78.09-.18,156.18-.08H785.31c13.88,0,21.55,7.89,21.55,22.3q0,94.29,0,188.58,0,99.81,0,199.63,0,89.85,0,179.7c0,8.77-2.19,16.47-10.92,20.29a27.87,27.87,0,0,1-10.78,2.22q-86.37.13-172.76,0h-6.94ZM232.65,664.21H768.29V310.4H232.65ZM615.4,271.49h57.23V219.66H615.4Zm95.74-51.92v52.06h57.14V219.57ZM672.76,703.19H615.5v51.92h57.26ZM385.51,271.66v-52H328.44v52Zm134.32-.09h56.92V219.66H519.83ZM328.52,703.13v52.09h57.06V703.13Zm191.34,52.16h57V703.11h-57Zm248.62-52.15H711.21v52h57.27Zm-535.64-.07v52.16h57V703.07Zm-.11-431.34h57.14V219.66H232.73ZM424.2,219.47V271.6h56.86V219.47Zm57,483.66h-57v52.15h57Z" transform="translate(-194.08 -181)"/><path class="cls-1" d="M443.26,486.89V382.82a2.48,2.48,0,0,1,0-.77c.86-2.27,1.15-5.46,2.8-6.52,1.37-.89,4.65.21,6.57,1.33,6.64,3.85,13,8.11,19.55,12.19q45.87,28.71,91.75,57.39,28.5,17.79,57,35.49c2,1.22,3.87,2.51,5.76,3.83,4.23,2.94,4.35,6.69.09,9.45-9.36,6-18.82,11.93-28.26,17.85q-34.47,21.62-69,43.19-38.55,24.11-77.2,48.08c-1.83,1.13-4.91,1.84-6.62,1-1.34-.62-2-3.87-2-6q-.18-56.25-.09-112.52Z" transform="translate(-194.08 -181)"/></g></svg>